Coordinates
version=1
nRows=19
nColumns=33
inDegrees=yes

Units are S.I. units (second, meters, Newtons, ...)
Angles are in degrees.

endheader
time	ground_thorax_rot_x	ground_thorax_rot_y	ground_thorax_rot_z	ground_thorax_tx	ground_thorax_ty	ground_thorax_tz	clav_prot_r	clav_elev_r	scapula_abduction_r	scapula_elevation_r	scapula_upward_rot_r	scapula_winging_r	shoulder_elv_r	plane_of_elev_r	axial_rot_r	elbow_flexion_r	pro_sup_r	wrist_flex_r	wrist_dev_r	clav_prot_l	clav_elev_l	scapula_abduction_l	scapula_elevation_l	scapula_upward_rot_l	scapula_winging_l	shoulder_elv_l	plane_of_elev_l	axial_rot_l	elbow_flexion_l	pro_sup_l	wrist_flex_l	wrist_dev_l
      4.08000000	    -38.83609305	    -10.59842264	     13.53028070	   -239.24721519	    826.88391823	      6.12659969	      9.14425823	    -45.00000000	     38.35654570	    -45.00000000	    -45.00000000	   2777.99249151	  -2266.16547810	    148.35578061	   -108.38916246	   1105.04992078	    165.74250107	     11.90215714	      5.98793612	     14.97355281	     37.78448765	    -36.89177112	    -45.00000000	    -45.00000000	   -994.73457774	   2063.59484077	    139.28567330	    163.56603692	   1102.53174614	    170.48586451	     -1.66780302	    -10.26382827
      4.09000000	    -38.83797835	    -10.61381498	     13.53232659	   -237.54526215	    826.85819721	      6.19516343	      9.19221380	    -45.00000000	     38.39461397	    -45.00000000	    -45.00000000	   2778.10363480	  -2266.15283474	    148.21409380	   -108.75493674	   1105.03960446	    166.93865952	     11.82253213	      6.07231928	     15.00686788	     37.79513022	    -37.01661296	    -45.00000000	    -45.00000000	   -994.78669363	   2063.67161962	    139.13446236	    163.92583337	   1102.56557277	    171.58607275	     -1.64759844	    -10.14136233
      4.10000000	    -38.85625525	    -10.63916741	     13.49468630	   -235.61501300	    826.82776390	      6.27024837	      9.05669851	    -45.00000000	     38.48324548	    -45.00000000	    -45.00000000	   2778.35962333	  -2266.06273075	    148.16036781	   -109.22870303	   1105.01538655	    168.40494110	     11.74054939	      6.13437527	     15.32223122	     37.93465059	    -37.24660393	    -45.00000000	    -45.00000000	   -994.83461759	   2063.69016735	    139.09935018	    164.11494699	   1102.61170793	    172.99874696	     -1.63281971	     -9.98990281
      4.11000000	    -38.84176322	    -10.67743353	     13.48055891	   -233.45178734	    826.78848219	      6.34681920	      9.09701334	    -45.00000000	     38.60352567	    -45.00000000	    -45.00000000	   2778.55439901	  -2265.99400244	    148.04713729	   -109.68801195	   1104.96189995	    169.90896314	     11.65103652	      6.17450310	     15.39831707	     37.96067604	    -37.42363064	    -45.00000000	    -45.00000000	   -994.91536436	   2063.73665328	    139.02157965	    164.32778138	   1102.66143404	    174.57569600	     -1.59095135	     -9.82311429
      4.12000000	    -38.83642280	    -10.69836620	     13.46281730	   -231.05298754	    826.72158164	      6.41779620	      9.25131586	    -45.00000000	     38.69747716	    -45.00000000	    -45.00000000	   2778.69988116	  -2265.98174411	    147.85242462	   -110.19119123	   1104.92302679	    171.36354729	     11.54359503	      6.20009483	     15.37076175	     37.94776460	    -37.60538589	    -45.00000000	    -45.00000000	   -994.95930535	   2063.82313333	    138.84127667	    164.56338892	   1102.68154043	    176.20230331	     -1.56045795	     -9.65108792
      4.13000000	    -38.81232072	    -10.76131388	     13.49805266	   -228.42139526	    826.61921741	      6.47845520	      9.24076673	    -45.00000000	     38.78500147	    -45.00000000	    -45.00000000	   2778.92955748	  -2265.91572170	    147.75339729	   -110.84187602	   1104.82336851	    172.93345862	     11.43485749	      6.19489254	     15.54404563	     38.01368713	    -37.85217812	    -45.00000000	    -45.00000000	   -995.03137362	   2063.85082668	    138.77113969	    164.70236919	   1102.72981000	    178.01093496	     -1.52292885	     -9.45110888
      4.14000000	    -38.82434495	    -10.84816787	     13.58117777	   -225.55786957	    826.46767377	      6.52389664	      9.21197824	    -45.00000000	     38.79527222	    -45.00000000	    -45.00000000	   2779.16431154	  -2265.87828176	    147.65413136	   -111.53257387	   1104.70765174	    174.61049875	     11.31550799	      6.17815367	     15.77447730	     38.08797745	    -38.18301780	    -45.00000000	    -45.00000000	   -995.08860489	   2063.85628798	    138.76143881	    164.77045245	   1102.76053578	    180.01975541	     -1.45708048	     -9.23394279
      4.15000000	    -38.81065987	    -10.98567166	     13.63964509	   -222.48033278	    826.26207537	      6.55098596	      9.26412912	    -45.00000000	     39.00296120	    -45.00000000	    -45.00000000	   2779.38035422	  -2265.84426856	    147.53502700	   -112.03535490	   1104.67015764	    176.26162805	     11.16996696	      6.13436401	     15.79196171	     38.08209268	    -38.36907318	    -45.00000000	    -45.00000000	   -995.21929278	   2064.00270521	    138.68935385	    164.87126032	   1102.73418378	    182.07034095	     -1.40623351	     -9.01403185
      4.16000000	    -38.85101714	    -11.10327793	     13.68550586	   -219.19331475	    825.97778198	      6.55488541	      9.11025806	    -45.00000000	     38.92525315	    -45.00000000	    -45.00000000	   2779.69922786	  -2265.75343317	    147.40023228	   -112.82018682	   1104.59296226	    178.25878630	     11.02120917	      6.09122070	     16.19604105	     38.18616084	    -38.76946147	    -45.00000000	    -45.00000000	   -995.29342381	   2063.99007220	    138.73294077	    164.81454689	   1102.72441554	    184.45350848	     -1.32120588	     -8.76250079
      4.17000000	    -38.83773126	    -11.23981566	     13.80076255	   -215.70901823	    825.60044170	      6.53341037	      9.23857163	    -45.00000000	     39.05096145	    -45.00000000	    -45.00000000	   2779.90003075	  -2265.76748037	    147.25872353	   -113.07077264	   1104.47086421	    180.11586532	     10.87362258	      6.07007989	     16.22452824	     38.19777963	    -39.03127584	    -45.00000000	    -45.00000000	   -995.36117538	   2063.99867918	    138.57455250	    164.85227368	   1102.67760538	    186.73256018	     -1.23680024	     -8.52678004
      4.18000000	    -38.83211271	    -11.37252575	     13.72862619	   -212.03919869	    825.09835463	      6.48309775	      9.37378400	    -45.00000000	     39.39354858	    -45.00000000	    -44.26864926	   2780.13220745	  -2265.82008731	    147.27281429	   -113.08768162	   1104.34979093	    181.89781255	     10.71798011	      5.99409411	     16.14539055	     38.27809069	    -39.24265610	    -45.00000000	    -45.00000000	   -995.46189698	   2064.06372220	    138.39036477	    164.88587138	   1102.62733065	    188.84717749	     -1.20254211	     -8.29245879
      4.19000000	    -38.86447405	    -11.36373795	     13.75435790	   -208.19034592	    824.44247175	      6.40239279	      9.06971283	    -45.00000000	     39.28367723	    -45.00000000	    -43.85878460	   2780.46142020	  -2265.78123153	    147.27244656	   -113.44502828	   1104.22079456	    184.32974895	     10.54758767	      5.94283891	     16.59532181	     38.39738984	    -39.73315085	    -45.00000000	    -44.76075106	   -995.71039825	   2063.91464798	    138.56100252	    164.76438657	   1102.58957031	    191.43049079	     -1.11236773	     -8.01176388
      4.20000000	    -38.94050439	    -11.39816087	     13.49499135	   -204.16906725	    823.59919261	      6.29010792	      9.18546903	    -45.00000000	     39.62449678	    -45.00000000	    -42.73760761	   2780.79537244	  -2265.95641394	    147.35533203	   -113.21263847	   1104.06184797	    186.50418519	     10.38042220	      5.92962944	     16.55586826	     38.67988575	    -39.86792641	    -45.00000000	    -43.95115425	   -995.80300407	   2063.71758510	    138.57540761	    164.51376825	   1102.47974001	    193.65262837	     -1.15744858	     -7.74359641
      4.21000000	    -39.03891599	    -11.39135231	     13.29731274	   -199.98720222	    822.55375730	      6.14794968	      9.15081929	    -45.00000000	     39.78444911	    -45.00000000	    -41.89068449	   2781.15727598	  -2266.10494362	    147.38746248	   -113.21285983	   1103.91426908	    188.84515629	     10.19371985	      5.88407982	     16.67111076	     38.91097643	    -40.08877811	    -45.00000000	    -43.19282893	   -995.95360170	   2063.51931308	    138.60692350	    164.18896811	   1102.32425010	    195.89649842	     -1.14725952	     -7.48998400
      4.22000000	    -39.10499917	    -11.38985889	     13.20186065	   -195.65396815	    821.29722898	      5.97694310	      9.08890494	    -45.00000000	     39.82634351	    -45.00000000	    -41.43367779	   2781.54400420	  -2266.24714985	    147.36805396	   -113.59673516	   1103.69674213	    191.56084979	      9.98047932	      5.76377084	     16.84376465	     39.01170678	    -40.39903043	    -45.00000000	    -42.63561605	   -996.17425890	   2063.34249359	    138.65902163	    163.95327611	   1102.14916520	    198.30795113	     -1.08383949	     -7.23256349
      4.23000000	    -39.16955966	    -11.45707637	     13.01414486	   -191.18461153	    819.82493135	      5.77363539	      9.10628817	    -45.00000000	     40.07480800	    -45.00000000	    -40.57642220	   2781.95131770	  -2266.44060209	    147.41638151	   -113.52247762	   1103.45496054	    194.08503572	      9.77941423	      5.74341241	     16.87545005	     39.25602139	    -40.58478305	    -45.00000000	    -41.91850901	   -996.31709781	   2063.09393052	    138.68092255	    163.64914564	   1101.97009982	    200.57182934	     -1.11511256	     -6.95528583
      4.24000000	    -39.23094738	    -11.51673336	     12.86624176	   -186.59531260	    818.14530502	      5.54160626	      9.08466453	    -45.00000000	     40.25932614	    -45.00000000	    -39.68949946	   2782.35182115	  -2266.69631288	    147.48344046	   -113.35020050	   1103.18913854	    196.58110419	      9.57017451	      5.71243058	     16.95905642	     39.47929466	    -40.77387371	    -45.00000000	    -41.23898540	   -996.51194844	   2062.85252757	    138.70838504	    163.36165559	   1101.74972686	    202.76967146	     -1.13399388	     -6.68910075
      4.25000000	    -39.28053941	    -11.51684394	     12.74724038	   -181.91127508	    816.27610658	      5.28603320	      9.01851159	    -45.00000000	     40.40688313	    -45.00000000	    -38.77456940	   2782.73520734	  -2266.99055491	    147.59219401	   -113.20258745	   1102.88323289	    199.11559693	      9.35799394	      5.69541576	     17.07132891	     39.73313737	    -41.03820507	    -45.00000000	    -40.55844258	   -996.72166306	   2062.52869095	    138.73743358	    163.05880266	   1101.53911820	    204.94838747	     -1.15561950	     -6.41342623
      4.26000000	    -39.32542111	    -11.53108297	     12.63407204	   -177.16109496	    814.24535817	      5.01858876	      8.90781735	    -45.00000000	     40.52173260	    -45.00000000	    -37.95216377	   2783.13568530	  -2267.29813041	    147.64338555	   -112.93935097	   1102.53072417	    201.84746235	      9.10356228	      5.58311611	     17.26300188	     39.85432166	    -41.28737484	    -45.00000000	    -40.03236007	   -997.04359022	   2062.29750002	    138.82908956	    162.86292637	   1101.27839935	    207.33826851	     -1.10834762	     -6.13665710
